<?xml version="1.0" standalone="no"?>
<!DOCTYPE svg PUBLIC "-//W3C//DTD SVG 1.1//EN" "http://www.w3.org/Graphics/SVG/1.1/DTD/svg11.dtd" >
<svg xmlns="http://www.w3.org/2000/svg" xmlns:xlink="http://www.w3.org/1999/xlink" version="1.1">
<metadata></metadata>
<defs>
<font id="helveticaneueheavy" horiz-adv-x="1290" >
<font-face units-per-em="2048" ascent="1638" descent="-410" />
<missing-glyph horiz-adv-x="645" />
<glyph horiz-adv-x="0" />
<glyph unicode="&#xd;" horiz-adv-x="645" />
<glyph unicode=" "  horiz-adv-x="645" />
<glyph unicode="&#x09;" horiz-adv-x="645" />
<glyph unicode="&#xa0;" horiz-adv-x="645" />
<glyph unicode="!" horiz-adv-x="606" d="M113 0v381h381v-381h-381zM125 1100v362h358v-362l-94 -617h-170z" />
<glyph unicode="&#x22;" horiz-adv-x="1024" d="M127 725v737h295v-737h-295zM602 725v737h295v-737h-295z" />
<glyph unicode="#" d="M141 389v215h183l30 225h-151v215h182l53 383h236l-53 -383h165l54 383h235l-53 -383h127v-215h-158l-30 -225h126v-215h-157l-53 -389h-236l53 389h-166l-53 -389h-235l53 389h-152zM559 604h166l31 225h-166z" />
<glyph unicode="$" d="M10 483h381q10 -199 219 -221v322q-41 10 -129 34q-195 55 -293 134q-135 106 -135 288q0 219 178 340q152 104 379 113v184h97v-186q223 -14 366 -125q160 -129 162 -352h-381q6 139 -147 176v-279q51 -12 151 -39q193 -55 291 -133q133 -109 133 -288q0 -240 -176 -365 q-150 -106 -399 -117v-184h-97v184q-264 8 -420 125q-178 135 -180 389zM434 1065q0 -80 176 -129v262q-176 -4 -176 -133zM707 264q195 12 194 142q1 96 -194 151v-293z" />
<glyph unicode="%" horiz-adv-x="2086" d="M154 1053q0 176 88 280q92 113 264 113q176 0 266 -109q84 -100 84 -284q0 -393 -350 -394q-178 0 -268 111q-84 103 -84 283zM393 1053q0 -229 113 -230q111 0 110 230q0 229 -110 229q-113 0 -113 -229zM532 -55l828 1538h203l-828 -1538h-203zM1233 375q0 176 88 280 q92 113 264 113q176 0 266 -109q84 -100 84 -284q0 -393 -350 -393q-178 0 -268 110q-84 103 -84 283zM1473 375q0 -229 112 -230q111 0 111 230q0 229 -111 229q-112 0 -112 -229z" />
<glyph unicode="&#x26;" horiz-adv-x="1478" d="M70 416q0 272 331 426q-129 143 -129 280q0 164 129 271q123 100 289 100q170 0 292 -104.5t122 -274.5q0 -236 -250 -362l152 -183q43 66 53 144h299q-18 -205 -162 -357l307 -356h-424l-102 123q-186 -154 -420 -154q-203 0 -342 121q-145 127 -145 326zM406 420 q0 -74 61 -123q55 -45 131 -45q82 0 195 104l-218 256q-170 -78 -169 -192zM582 1139q0 -51 33.5 -97.5t68.5 -87.5q135 82 135 181q0 51 -33.5 81.5t-89.5 30.5q-47 0 -80.5 -31.5t-33.5 -76.5z" />
<glyph unicode="'" horiz-adv-x="606" d="M156 725v737h295v-737h-295z" />
<glyph unicode="(" horiz-adv-x="606" d="M74 561q0 258 65 479q54 185 191 453h295q-225 -465 -226 -932q0 -453 226 -917h-295q-137 268 -191 450q-66 219 -65 467z" />
<glyph unicode=")" horiz-adv-x="606" d="M-18 -356q225 465 225 917q0 467 -225 932h294q137 -268 191 -453q66 -221 65 -479q0 -248 -65 -467q-53 -182 -191 -450h-294z" />
<glyph unicode="*" horiz-adv-x="909" d="M51 1100l64 190l237 -90v262h203v-262l238 90l63 -190l-248 -78l158 -211l-162 -121l-153 219l-152 -219l-160 119l162 213z" />
<glyph unicode="+" horiz-adv-x="1228" d="M98 371v295h369v370h295v-370h368v-295h-368v-371h-295v371h-369z" />
<glyph unicode="," horiz-adv-x="647" d="M133 0v381h381v-338q0 -197 -133 -303q-100 -80 -248 -96v163q150 39 168 193h-168z" />
<glyph unicode="-" horiz-adv-x="833" d="M98 410v295h637v-295h-637z" />
<glyph unicode="." horiz-adv-x="647" d="M133 0v381h381v-381h-381z" />
<glyph unicode="/" horiz-adv-x="833" d="M-18 -31l550 1524h320l-551 -1524h-319z" />
<glyph unicode="0" d="M76 715q0 315 127 508q147 223 432 223q295 0 448 -223q133 -195 134 -508q0 -313 -134 -510q-155 -223 -448 -223q-285 0 -432 223q-127 195 -127 510zM412 715q0 -197 34 -295q54 -156 199 -156q152 0 205 156q31 94 31 295t-31 295q-53 154 -205 153q-145 0 -199 -153 q-35 -98 -34 -295z" />
<glyph unicode="1" d="M215 877v256q170 -4 281 61q131 78 141 233h289v-1427h-369v877h-342z" />
<glyph unicode="2" d="M66 0q4 287 223 475q37 33 202.5 136.5t241.5 168.5q115 100 115 183q0 82 -50 130t-134 48q-233 0 -238 -289h-326q-16 266 139.5 430t422.5 164q227 0 372 -113q162 -123 162 -340q0 -182 -125 -307q-61 -63 -280 -199q-96 -59 -136 -88q-59 -43 -123 -104h678v-295 h-1144z" />
<glyph unicode="3" d="M59 518h326q-6 -254 256 -254q98 0 160 41q72 47 71 135q0 195 -254 195q-31 0 -92 -4v241q31 -2 92 -2q231 4 232 150q0 68 -58.5 105.5t-146.5 37.5q-225 0 -221 -202h-326q6 231 162 362q145 123 383 123q215 0 358 -88q174 -106 175 -307q0 -100 -50 -179 q-55 -84 -149 -100v-4q244 -63 244 -328q0 -225 -183 -350q-160 -109 -395 -108q-266 0 -424 131q-174 143 -160 405z" />
<glyph unicode="4" d="M63 317v326l639 784h334v-815h187v-295h-187v-317h-348v317h-625zM334 612h364v461h-4z" />
<glyph unicode="5" d="M45 442h348q2 -80 76 -131q68 -47 154 -47q102 0 169.5 63.5t67.5 166.5q0 106 -59.5 170.5t-165.5 64.5q-158 0 -227 -108h-316l139 806h902v-294h-633l-54 -261h5q104 102 278 103q221 0 350 -122t129 -343q0 -254 -168 -395q-158 -133 -417 -133q-551 -1 -578 460z " />
<glyph unicode="6" d="M76 705q0 322 149 520q168 221 475 221q197 0 328 -96q137 -103 170 -293h-326q-29 133 -172 133q-137 0 -215 -121q-61 -98 -69 -242h4q92 152 334 152q195 0 329 -137t134 -334q0 -246 -168 -391q-160 -135 -404 -135q-293 0 -442 225q-127 190 -127 498zM424 485 q0 -94 62.5 -157.5t162.5 -63.5q106 0 174 64.5t68 154.5q0 104 -64.5 172t-179.5 68q-96 0 -159.5 -69t-63.5 -169z" />
<glyph unicode="7" d="M123 1112v315h1038v-280q-53 -43 -139 -170q-98 -143 -166 -291q-145 -317 -149 -686h-375q16 330 188 686q72 147 166 281q82 115 121 141v4h-684z" />
<glyph unicode="8" d="M59 420q0 125 77 221t198 117v4q-100 25 -156.5 104.5t-56.5 186.5q0 195 176 303q147 90 354 90q209 0 355 -90q170 -109 170 -305q0 -100 -56 -183q-61 -86 -155 -106v-4q125 -25 196.5 -115t71.5 -223q0 -219 -186 -338q-158 -100 -398 -100q-244 0 -399 94 q-191 115 -191 344zM408 438q0 -100 73 -153q66 -47 166 -47t164 45q74 53 74 155q0 96 -67 150.5t-169 54.5q-100 0 -168 -49q-74 -57 -73 -156zM430 1026q0 -168 217 -168q88 0 148 39q72 45 71 129q0 82 -67 125q-60 39 -152 39q-217 0 -217 -164z" />
<glyph unicode="9" d="M76 932q0 225 159.5 369.5t387.5 144.5q297 0 452 -205q141 -186 142 -493q0 -338 -142 -537q-162 -229 -483 -229q-201 0 -328 96q-133 100 -170 293h326q12 -66 67.5 -99.5t124.5 -33.5q248 0 265 362h-5q-88 -154 -319 -154q-211 0 -344 137.5t-133 348.5zM401 940 q0 -102 63 -170t167 -68q109 0 173 67t64 167q0 98 -65.5 162.5t-173.5 64.5q-96 0 -162 -66.5t-66 -156.5z" />
<glyph unicode=":" horiz-adv-x="647" d="M133 0v381h381v-381h-381zM133 682v381h381v-381h-381z" />
<glyph unicode=";" horiz-adv-x="647" d="M133 0v381h381v-338q0 -199 -133 -305q-100 -80 -248 -94v163q150 39 168 193h-168zM133 682v381h381v-381h-381z" />
<glyph unicode="&#x3c;" horiz-adv-x="1228" d="M94 373v291l1041 389v-316l-629 -217v-4l629 -217v-315z" />
<glyph unicode="=" horiz-adv-x="1228" d="M98 117v295h1032v-295h-1032zM98 625v295h1032v-295h-1032z" />
<glyph unicode="&#x3e;" horiz-adv-x="1228" d="M94 -16v315l629 217v4l-629 217v316l1041 -389v-291z" />
<glyph unicode="?" horiz-adv-x="1175" d="M63 983q2 240 147.5 375t389.5 135q209 0 352 -102q160 -115 160 -316q0 -135 -68 -221q-47 -59 -184 -147q-82 -53 -106 -91q-27 -43 -29 -133h-324v103q0 168 166 284q96 68 113 84q51 51 51 119q0 57 -38 91t-95 34q-176 0 -176 -176v-39h-359zM373 0v381h381v-381 h-381z" />
<glyph unicode="@" horiz-adv-x="1638" d="M72 729q0 326 228 545t554 219q285 0 492 -168q221 -178 221 -451q0 -305 -207 -471q-150 -121 -299 -120q-123 0 -127 100h-4q-76 -102 -197 -102q-133 0 -235.5 110.5t-102.5 259.5q0 188 113 324q119 143 299 143q166 0 252 -119l18 99h193l-90 -488q-10 -57 -11 -73 q0 -39 25 -39q74 0 127 73q63 86 63 238q0 240 -151 371q-143 125 -385 125q-252 0 -404.5 -161t-152.5 -415q0 -264 163.5 -417.5t428.5 -153.5q227 0 387 121h200q-223 -309 -604 -310q-332 0 -563 216t-231 544zM635 684q0 -74 41 -121t115 -47q92 0 150 62.5t58 152.5 q0 74 -44 120t-117 46q-86 0 -144.5 -64.5t-58.5 -148.5z" />
<glyph unicode="A" horiz-adv-x="1441" d="M-18 0l546 1462h387l547 -1462h-397l-90 262h-510l-92 -262h-391zM553 545h332l-162 512h-4z" />
<glyph unicode="B" horiz-adv-x="1478" d="M131 0v1462h684q528 0 528 -366q0 -199 -192 -295q117 -33 184.5 -127t67.5 -219q0 -455 -569 -455h-703zM512 305h305q205 0 205 164q0 172 -205 172h-305v-336zM512 887h295q59 0 102 31q53 37 54 108q0 141 -156 141h-295v-280z" />
<glyph unicode="C" horiz-adv-x="1554" d="M86 731q0 326 201.5 544t527.5 218q254 0 449 -143q211 -160 219 -410h-381q-14 109 -93 167t-202 58q-172 0 -262 -135q-78 -117 -78 -299t78 -299q90 -135 262 -135q272 0 295 270h381q-14 -279 -199.5 -438.5t-468.5 -159.5q-326 0 -530 221q-199 215 -199 541z" />
<glyph unicode="D" horiz-adv-x="1554" d="M131 0v1462h629q336 0 526.5 -192.5t190.5 -532.5q0 -356 -189.5 -546.5t-527.5 -190.5h-629zM512 328h180q217 0 310.5 96t93.5 315q0 395 -404 396h-180v-807z" />
<glyph unicode="E" horiz-adv-x="1402" d="M131 0v1462h1165v-305h-784v-256h717v-295h-717v-278h805v-328h-1186z" />
<glyph unicode="F" horiz-adv-x="1251" d="M131 0v1462h1077v-305h-696v-299h602v-295h-602v-563h-381z" />
<glyph unicode="G" horiz-adv-x="1593" d="M277.5 1275q201.5 218 527.5 218q250 0 432 -127q205 -143 229 -401h-381q-8 92 -90 146t-198 54q-172 0 -262 -135q-78 -117 -78 -299t78 -299q90 -135 262 -135q139 0 229 60.5t107 160.5h-267v283h615v-801h-246l-23 160q-135 -190 -407 -191q-326 0 -531 221 q-198 214 -198 538q0 329 201.5 547z" />
<glyph unicode="H" horiz-adv-x="1517" d="M127 0v1462h381v-532h502v532h381v-1462h-381v602h-502v-602h-381z" />
<glyph unicode="I" horiz-adv-x="645" d="M131 0v1462h381v-1462h-381z" />
<glyph unicode="J" horiz-adv-x="1214" d="M57 518v64h359v-136q0 -149 145 -149h2q137 0 137 190v975h381v-999q0 -494 -512 -494t-512 549z" />
<glyph unicode="K" horiz-adv-x="1517" d="M131 0v1462h381v-561l481 561h473l-540 -575l608 -887h-473l-393 614l-156 -163v-451h-381z" />
<glyph unicode="L" horiz-adv-x="1251" d="M131 0v1462h381v-1134h682v-328h-1063z" />
<glyph unicode="M" horiz-adv-x="1896" d="M133 0v1462h561l252 -975h4l252 975h561v-1462h-358v1110h-4l-307 -1110h-291l-307 1110h-4v-1110h-359z" />
<glyph unicode="N" horiz-adv-x="1517" d="M127 0v1462h391l508 -901h4v901h359v-1462h-392l-508 911h-4v-911h-358z" />
<glyph unicode="O" horiz-adv-x="1593" d="M76 731q0 330 188 541q197 221 533 221t532 -221q188 -211 189 -541q0 -330 -189 -541q-197 -221 -532 -221q-336 0 -533 221q-188 211 -188 541zM457 731q0 -182 78 -299q90 -135 262 -135t262 135q78 117 78 299t-78 299q-90 135 -262 135t-262 -135q-78 -117 -78 -299 z" />
<glyph unicode="P" horiz-adv-x="1402" d="M131 0v1462h694q227 0 367 -106q162 -123 162 -365q0 -504 -529 -504h-313v-487h-381zM512 782h256q205 0 205 183q0 192 -203 192h-2h-256v-375z" />
<glyph unicode="Q" horiz-adv-x="1593" d="M76 731q0 330 188 541q197 221 533 221t532 -221q188 -211 189 -541q0 -322 -183 -532l176 -170l-174 -181l-200 197q-147 -76 -340 -76q-336 0 -533 221q-188 211 -188 541zM457 731q0 -182 78 -299q90 -135 262 -135q45 0 75 8l-114 113l170 178l143 -139 q66 109 66 274q0 182 -78 299q-90 135 -262 135t-262 -135q-78 -117 -78 -299z" />
<glyph unicode="R" horiz-adv-x="1478" d="M131 0v1462h746q215 0 352 -94q160 -111 160 -317q0 -123 -58 -220q-61 -104 -172 -147v-4q188 -45 213 -350q6 -84 14 -168q14 -129 48 -162h-377q-29 43 -43 233q-10 141 -43 205q-51 94 -170 94h-289v-532h-381zM512 827h319q176 0 177 172q0 158 -193 158h-303v-330z " />
<glyph unicode="S" horiz-adv-x="1366" d="M47 492h381q10 -227 277 -228q96 0 159 35q74 39 74 115q0 84 -131 133q-143 39 -289 80q-197 55 -293 133q-135 109 -135 289q0 221 195 342q166 102 401 102q242 0 401 -113q182 -127 185 -358h-381v9q0 85 -72 128q-63 39 -164 39q-184 0 -184 -125q0 -72 133 -117 q145 -37 291 -75q193 -53 291 -133q133 -109 133 -289q0 -258 -199 -383q-164 -106 -438 -107q-274 0 -442 121q-191 138 -193 402z" />
<glyph unicode="T" horiz-adv-x="1327" d="M37 1135v327h1253v-327h-436v-1135h-381v1135h-436z" />
<glyph unicode="U" horiz-adv-x="1517" d="M121 604v858h381v-880q0 -285 256 -285t256 285v880h381v-858q0 -322 -152 -477q-158 -158 -485 -158q-328 0 -482.5 157t-154.5 478z" />
<glyph unicode="V" horiz-adv-x="1327" d="M-23 1462h398l287 -1087h4l286 1087h398l-473 -1462h-439z" />
<glyph unicode="W" horiz-adv-x="1972" d="M0 1462h381l207 -1069h4l215 1069h358l215 -1069h4l207 1069h381l-403 -1462h-381l-201 1008h-4l-201 -1008h-387z" />
<glyph unicode="X" horiz-adv-x="1441" d="M-16 0l520 768l-477 694h448l246 -454l260 454h434l-473 -694l516 -768h-463l-274 487l-299 -487h-438z" />
<glyph unicode="Y" horiz-adv-x="1366" d="M-39 1462h432l291 -594l291 594h432l-533 -917v-545h-380v545z" />
<glyph unicode="Z" horiz-adv-x="1366" d="M49 0v311l750 824h-705v327h1196v-295l-768 -839h795v-328h-1268z" />
<glyph unicode="[" horiz-adv-x="757" d="M141 -356v1849h602v-295h-276v-1259h276v-295h-602z" />
<glyph unicode="\" horiz-adv-x="833" d="M-18 1493h319l551 -1524h-320z" />
<glyph unicode="]" horiz-adv-x="757" d="M14 -61h277v1259h-277v295h602v-1849h-602v295z" />
<glyph unicode="^" horiz-adv-x="1228" d="M96 680l332 747h373l332 -747h-328l-191 487l-192 -487h-326z" />
<glyph unicode="_" horiz-adv-x="1024" d="M0 -154h1024v-102h-1024v102z" />
<glyph unicode="`" horiz-adv-x="606" d="M-72 1483h369l199 -305h-246z" />
<glyph unicode="a" horiz-adv-x="1214" d="M59 291q0 158 107 237q80 61 244 90q135 20 268 41q92 18 92 99q0 55 -57 86q-45 24 -106 24h-5q-149 0 -174 -133h-326q16 358 504 359q225 0 342 -66q154 -86 154 -291v-465q0 -188 41 -272h-350q-12 33 -21 100q-125 -131 -350 -131q-160 0 -258 78q-104 86 -105 244z M408 305q0 -121 145 -121q123 0 171 74q43 66 43 204q0 17 -1 36q-33 -20 -139.5 -41t-147.5 -41q-71 -37 -71 -111z" />
<glyph unicode="b" d="M117 0v1462h348v-516h4q109 147 303 148q213 0 338 -166q111 -150 111 -373q0 -246 -113 -405q-127 -180 -363 -181q-188 0 -292 154h-4v-123h-332zM664 236q106 0 163 98q45 84 45 209q0 117 -45 192q-55 92 -161 92q-84 0 -142 -59q-71 -75 -71 -221q0 -311 211 -311z " />
<glyph unicode="c" horiz-adv-x="1214" d="M66 514q0 256 151.5 418t405.5 162q209 0 352 -105q154 -114 172 -315h-338q-2 66 -52 109.5t-118 43.5q-225 0 -225 -313q0 -115 49 -190q55 -88 158 -88q172 0 198 182h338q-23 -209 -170 -329t-364 -120q-242 0 -399.5 151.5t-157.5 393.5z" />
<glyph unicode="d" d="M176 928q125 166 338 166q195 0 303 -146h4v514h348v-1462h-331v123h-4q-104 -154 -293 -154q-236 0 -363 181q-112 159 -112 401q0 227 110 377zM414 543q0 -127 47 -209q55 -98 166 -98q207 0 207 296q0 127 -48 205q-53 90 -159 90q-111 0 -166 -92q-47 -76 -47 -192z " />
<glyph unicode="e" horiz-adv-x="1251" d="M236 936q164 158 403 158q276 0 426 -189q130 -162 130 -415q0 -22 -1 -44h-780q4 -111 66.5 -176t170.5 -65q150 0 199 117h326q-45 -174 -199 -269q-139 -84 -330 -84q-264 0 -420 150q-161 151 -161 413q0 245 170 404zM414 641h432q-4 90 -62.5 153.5t-144.5 63.5 q-90 0 -149.5 -59.5t-75.5 -157.5z" />
<glyph unicode="f" horiz-adv-x="757" d="M25 838v225h168q0 227 89 313t314 86q2 0 168 -6v-246q-49 6 -94 7q-68 0 -95 -17q-35 -23 -34 -90v-47h209v-225h-209v-838h-348v838h-168z" />
<glyph unicode="g" horiz-adv-x="1251" d="M55 573q0 221 121 367q129 154 346 154q193 0 285 -164h4v133h334v-934q0 -502 -531 -502q-217 0 -338 64q-156 82 -184 276h348q20 -114 184 -114h3q113 0 153 73q29 53 29 174v101h-4q-100 -156 -283 -156q-231 0 -354 152q-113 139 -113 376zM403 561q0 -104 48 -172 q53 -78 153 -78q104 0 162 74q49 65 49 174q0 115 -45 184q-55 84 -164 84q-106 0 -160 -84q-43 -70 -43 -182z" />
<glyph unicode="h" d="M117 0v1462h348v-544h4q39 80 135 129q90 47 189 47q383 0 383 -412v-682h-349v514q0 158 -16 201q-33 92 -158 92q-92 0 -143 -70q-45 -61 -45 -157v-580h-348z" />
<glyph unicode="i" horiz-adv-x="606" d="M129 0v1063h348v-1063h-348zM129 1196v266h348v-266h-348z" />
<glyph unicode="j" horiz-adv-x="606" d="M-51 -74h69q111 0 111 99v1038h348v-1063q0 -197 -82 -276.5t-270 -79.5h-176v282zM129 1196v266h348v-266h-348z" />
<glyph unicode="k" horiz-adv-x="1214" d="M117 0v1462h348v-753l317 354h404l-389 -401l438 -662h-420l-260 428l-90 -88v-340h-348z" />
<glyph unicode="l" horiz-adv-x="606" d="M129 0v1462h348v-1462h-348z" />
<glyph unicode="m" horiz-adv-x="1896" d="M117 0v1063h338v-145h4q104 176 305 176q233 0 309 -172q129 172 332 172q225 0 313 -154q61 -104 62 -305v-635h-348v625q0 182 -146 182q-102 0 -137 -78q-27 -59 -27 -209v-520h-348v604q0 203 -131 203q-96 0 -137 -64.5t-41 -224.5v-518h-348z" />
<glyph unicode="n" d="M117 0v1063h338v-145h4q47 80 141 128t193 48q383 0 383 -412v-682h-349v514q0 158 -16 201q-33 92 -158 92q-92 0 -143 -70q-45 -61 -45 -157v-580h-348z" />
<glyph unicode="o" horiz-adv-x="1251" d="M66 530q0 242 156.5 403t402.5 161t403.5 -161t157.5 -403t-158 -401.5t-403 -159.5q-246 0 -402.5 159.5t-156.5 401.5zM414 530q0 -121 45 -198q55 -96 166 -96t168 96q45 80 45 198q0 119 -45 199q-57 98 -168 98t-166 -98q-45 -78 -45 -199z" />
<glyph unicode="p" d="M117 -356v1419h332v-123h4q104 154 292 154q236 0 363 -181q113 -160 113 -405q0 -223 -111 -373q-125 -166 -338 -166q-195 0 -303 146h-4v-471h-348zM664 236q106 0 163 98q45 84 45 209q0 117 -45 192q-55 92 -161 92q-84 0 -142 -59q-71 -75 -71 -221 q0 -311 211 -311z" />
<glyph unicode="q" d="M178 913q127 180 363 181q188 0 293 -154h4v123h331v-1419h-348v473h-4q-106 -147 -303 -148q-213 0 -338 166q-110 149 -110 369q0 250 112 409zM414 520q0 -117 45 -192q55 -92 162 -92q84 0 141 61q72 74 72 225q0 305 -207 305q-111 0 -166 -98q-47 -82 -47 -209z " />
<glyph unicode="r" horiz-adv-x="872" d="M129 0v1063h338v-186h4q78 206 318 206h2q47 0 81 -8v-317q-76 20 -133 20q-123 0 -192.5 -72.5t-69.5 -179.5v-526h-348z" />
<glyph unicode="s" horiz-adv-x="1138" d="M55 350h332q0 -76 57 -119q48 -36 125 -36h4q61 0 107 24q57 31 57 88q0 53 -61 82q-23 8 -109 31q-113 25 -225 51q-127 35 -188 92q-80 74 -80 205q0 174 164 258q129 68 321 68q475 0 490 -344h-322q0 118 -153 118h-3q-149 0 -149 -79q0 -64 137 -103 q127 -25 256 -51q143 -31 215 -127q55 -74 55 -160q0 -197 -165 -297q-135 -82 -345 -82q-219 0 -350 80q-164 96 -170 301z" />
<glyph unicode="t" horiz-adv-x="796" d="M18 838v225h177v321h348v-321h215v-225h-215v-484q0 -102 125 -102q14 0 43.5 2t46.5 2v-256q-25 0 -94 -6q-61 -4 -97 -4q-221 0 -296.5 77.5t-75.5 297.5v473h-177z" />
<glyph unicode="u" d="M115 424v639h348v-617q0 -190 172 -190q72 0 123 49q68 61 67 189v569h349v-1063h-338v145h-5q-49 -80 -139 -128t-184 -48q-217 0 -311 123q-82 109 -82 332z" />
<glyph unicode="v" horiz-adv-x="1099" d="M-6 1063h362l195 -703h4l197 703h354l-356 -1063h-402z" />
<glyph unicode="w" horiz-adv-x="1705" d="M0 1063h352l178 -688h5l151 688h332l156 -686h4l174 686h354l-332 -1063h-352l-168 707h-4l-166 -707h-352z" />
<glyph unicode="x" horiz-adv-x="1099" d="M-14 0l368 557l-338 506h385l150 -254l149 254h369l-332 -500l377 -563h-385l-184 307l-174 -307h-385z" />
<glyph unicode="y" horiz-adv-x="1099" d="M-14 1063h368l201 -692h4l201 692h356l-420 -1157q-59 -164 -166 -219q-84 -43 -278 -43h-164v282h121q61 0 100 32t39 87q0 41 -88 279z" />
<glyph unicode="z" horiz-adv-x="1099" d="M45 0v270l530 527h-487v266h930v-264l-531 -533h570v-266h-1012z" />
<glyph unicode="{" horiz-adv-x="757" d="M29 444v246q182 0 182 125v385q0 293 276 293h242v-246h-84q-109 0 -108 -133v-336q0 -186 -236 -196v-7q100 -6 150 -36q86 -51 86 -179v-337q0 -133 108 -134h84v-245h-242q-123 0 -194 69q-82 80 -82 234v354q0 143 -182 143z" />
<glyph unicode="|" horiz-adv-x="454" d="M80 -31v1524h295v-1524h-295z" />
<glyph unicode="}" horiz-adv-x="757" d="M29 -111h84q109 0 108 134v337q0 127 86 179q49 31 150 36v7q-236 10 -236 196v336q0 133 -108 133h-84v246h241q276 0 277 -293v-385q0 -125 182 -125v-246q-182 0 -182 -143v-354q0 -154 -82 -234q-72 -70 -195 -69h-241v245z" />
<glyph unicode="~" horiz-adv-x="1228" d="M141 559q92 176 256 176q78 0 228 -65q168 -74 209 -74q84 0 180 147l73 -266q-61 -86 -102 -121q-70 -55 -154 -55q-86 0 -208 68q-129 72 -236 71q-104 0 -172 -147z" />
<glyph unicode="&#xa1;" horiz-adv-x="606" d="M113 739v381h381v-381h-381zM125 20l94 617h170l94 -617v-362h-358v362z" />
<glyph unicode="&#xa2;" d="M100 514q0 244 138.5 403.5t373.5 174.5v161h95v-161q193 -12 319 -117q137 -113 156 -301h-338q-2 57 -41 98t-96 49v-579q125 25 147 176h338q-23 -197 -155 -314.5t-330 -130.5v-188h-95v188q-227 14 -369.5 163t-142.5 378zM449 514q0 -100 38 -172q43 -84 125 -100 v579q-164 -39 -163 -307z" />
<glyph unicode="&#xa3;" d="M84 614v215h137q-88 119 -88 232q0 211 168 330q147 102 365 102q248 0 389 -127q150 -135 141 -381h-338q4 90 -33 148q-45 66 -133 65q-80 0 -129 -42t-49 -120q0 -41 26.5 -105.5t55.5 -101.5h244v-215h-183q14 -41 15 -86q0 -143 -142 -249l5 -5q59 39 153 39 q35 0 118 -19.5t124 -19.5q102 0 182 93l141 -252q-141 -145 -356 -146q-66 0 -213 40t-223 40q-94 0 -217 -80l-140 209q223 143 224 303q0 78 -27 133h-217z" />
<glyph unicode="&#xa4;" d="M102 717q0 170 101 315l-92 90l122 123l93 -90q141 104 319 105q178 0 320 -105l88 90l123 -123l-91 -90q102 -141 103 -315q0 -174 -103 -316l91 -90l-123 -123l-90 91q-137 -104 -318 -105q-170 0 -311 98l-92 -92l-123 123l90 92q-106 141 -107 322zM397 717 q0 -123 72 -200t176 -77t176 77t72 200t-71.5 199.5t-176.5 76.5q-104 0 -176 -76.5t-72 -199.5z" />
<glyph unicode="&#xa5;" d="M0 1462h381l262 -616h4l262 616h381l-305 -616h211v-215h-319l-41 -84v-64h360v-215h-360v-268h-381v268h-361v215h361v64l-41 84h-320v215h213z" />
<glyph unicode="&#xa6;" horiz-adv-x="454" d="M80 -31v574h295v-574h-295zM80 920v573h295v-573h-295z" />
<glyph unicode="&#xa7;" d="M72 621q0 229 215 311q-78 90 -78 205q0 168 147 268q129 88 301 88q199 0 322 -98q131 -106 135 -301h-301q0 68 -42 105.5t-109 37.5q-51 0 -88 -28.5t-37 -78.5q0 -49 53 -88q23 -16 96 -53l340 -166q195 -94 195 -278q0 -109 -56 -191q-57 -88 -155 -116 q102 -86 102 -226q0 -186 -143 -291q-127 -94 -322 -94q-215 0 -342 97q-139 109 -139 321h301q0 -76 49 -119t125 -43q63 0 103 35t40 92q0 82 -184 164q-303 137 -344 164q-184 117 -184 283zM367 674q-4 -56 84 -111l383 -184q66 18 81 63q10 20 11 41q0 76 -107 125 l-309 144q-31 14 -57 14q-80 0 -86 -92z" />
<glyph unicode="&#xa8;" horiz-adv-x="606" d="M-68 1206v256h308v-256h-308zM369 1206v256h307v-256h-307z" />
<glyph unicode="&#xa9;" horiz-adv-x="1638" d="M29 731q0 348 241 563q225 199 549 199t549 -199q242 -215 242 -563t-242 -561q-225 -201 -549 -201t-549 201q-242 213 -241 561zM285 731q0 -246 157 -409q152 -158 377 -158q221 0 378 160.5t157 406.5t-160 410q-154 158 -375 157q-225 0 -377 -157 q-158 -164 -157 -410zM424 737q0 193 114.5 317t307.5 124q141 0 239.5 -82t120.5 -232h-184q-25 119 -176 119q-86 0 -134 -64.5t-48 -177.5q0 -106 52 -176.5t134 -70.5q164 0 172 127h192q-20 -154 -127 -240q-98 -82 -237 -82q-190 0 -308 125t-118 313z" />
<glyph unicode="&#xaa;" horiz-adv-x="772" d="M0 915q0 154 143 203q49 16 140 29q123 16 149 20q59 12 60 60q0 55 -109 55q-97 0 -113 -70h-241q2 137 106 191q84 43 250 43q174 0 256 -41q104 -53 104 -191v-284q0 -113 27 -189h-264q-10 29 -14 60q-119 -78 -228 -78q-266 0 -266 192zM256 948q0 -61 96 -61 q137 0 137 139v39q-37 -14 -139 -35q-94 -18 -94 -82z" />
<glyph unicode="&#xab;" horiz-adv-x="909" d="M92 397v312l326 262v-281l-176 -137l176 -135v-281zM492 397v312l325 262v-281l-176 -137l176 -135v-281z" />
<glyph unicode="&#xac;" horiz-adv-x="1228" d="M98 625v295h1032v-674h-294v379h-738z" />
<glyph unicode="&#xad;" horiz-adv-x="833" d="M98 410v295h637v-295h-637z" />
<glyph unicode="&#xae;" horiz-adv-x="1638" d="M29 731q0 348 241 563q225 199 549 199t549 -199q242 -215 242 -563t-242 -561q-225 -201 -549 -201t-549 201q-242 213 -241 561zM285 731q0 -246 157 -409q152 -158 377 -158q221 0 378 160.5t157 406.5t-160 410q-154 158 -375 157q-225 0 -377 -157 q-158 -164 -157 -410zM508 319v826h309q174 0 256 -51q94 -61 94 -201q0 -207 -235 -217l211 -357h-195l-188 345h-51v-345h-201zM709 809h145q113 0 113 104q0 86 -154 86h-104v-190z" />
<glyph unicode="&#xaf;" horiz-adv-x="606" d="M-29 1237v176h666v-176h-666z" />
<glyph unicode="&#xb0;" horiz-adv-x="819" d="M82 1118q0 135 96 231.5t232 96.5q135 0 231 -96.5t96 -231.5t-96 -231t-231 -96t-231.5 96t-96.5 231zM246 1118q0 -78 45 -130t119 -52t118.5 52t44.5 130t-45 130t-118 52q-74 0 -119 -52t-45 -130z" />
<glyph unicode="&#xb1;" horiz-adv-x="1228" d="M98 -25v295h1032v-295h-1032zM98 559v295h369v207h295v-207h368v-295h-368v-207h-295v207h-369z" />
<glyph unicode="&#xb2;" horiz-adv-x="774" d="M10 1079q0 170 100.5 268.5t292.5 98.5q166 0 265 -70q109 -74 108 -213q0 -100 -74 -172q-53 -51 -178 -114q-72 -37 -88 -48q-53 -31 -74 -65h398v-195h-748q0 184 146 299q31 25 241 150q121 72 121 127q0 106 -114 106q-135 0 -140 -172h-256z" />
<glyph unicode="&#xb3;" horiz-adv-x="774" d="M10 842v47h256q0 -70 40 -107t110 -37q51 0 94 24t43 60q0 104 -152 105h-28q-21 -2 -31 -2v168h31q20 -2 28 -2q135 0 136 76q0 35 -36 56t-81 21q-57 0 -93 -31.5t-34 -82.5h-256q4 154 108 233q98 76 273 76q162 0 258 -55q117 -66 117 -199q0 -143 -142 -164v-4 q158 -20 158 -195q0 -139 -121 -213q-104 -66 -270 -65q-182 0 -289 67q-119 78 -119 224z" />
<glyph unicode="&#xb4;" horiz-adv-x="606" d="M92 1178l199 305h368l-321 -305h-246z" />
<glyph unicode="&#xb5;" d="M115 -356v1419h348v-617q0 -190 172 -190q72 0 123 49q68 61 67 189v569h349v-1063h-338v145h-5q-49 -80 -139 -128t-184 -48q-27 0 -45 13v-338h-348z" />
<glyph unicode="&#xb6;" horiz-adv-x="1269" d="M-35 1098q0 205 146 293q119 72 358 71h643v-1808h-246v1624h-198v-1624h-246v1094q-221 0 -339 92t-118 258z" />
<glyph unicode="&#xb7;" horiz-adv-x="645" d="M133 586q0 78 56.5 134t134.5 56t134 -56t56 -134t-56.5 -134.5t-133.5 -56.5q-78 0 -134.5 56.5t-56.5 134.5z" />
<glyph unicode="&#xb8;" horiz-adv-x="606" d="M59 -416l39 92q92 -31 168 -38q45 -4 75 15t30 56q0 78 -88 78q-35 0 -82 -14l-45 39l116 188h113l-82 -123l4 -4q33 10 82 10q70 0 117 -37q57 -43 57 -127q0 -199 -262 -198q-100 0 -242 63z" />
<glyph unicode="&#xb9;" horiz-adv-x="774" d="M111 1071v184q111 -2 184 37q84 45 90 135h205v-858h-256v502h-223z" />
<glyph unicode="&#xba;" horiz-adv-x="792" d="M-4 1083q0 164 106.5 263.5t292.5 99.5t294 -99.5t108 -263.5t-108 -262t-294 -98q-184 0 -291.5 98.5t-107.5 261.5zM252 1083q0 -63 31 -108q36 -57 112 -57t115 57q31 45 31 108q0 66 -31 111q-39 57 -115 57t-112 -57q-31 -45 -31 -111z" />
<glyph unicode="&#xbb;" horiz-adv-x="909" d="M92 137v281l176 137l-176 135v281l326 -260v-312zM492 137v281l176 137l-176 135v281l325 -260v-312z" />
<glyph unicode="&#xbc;" horiz-adv-x="1935" d="M53 1071v184q111 -2 185 37q84 45 90 135h204v-858h-256v502h-223zM408 -55l841 1538h203l-842 -1538h-202zM1085 182v203l416 473h250v-491h131v-185h-131v-182h-258v182h-408zM1278 367h217v251z" />
<glyph unicode="&#xbd;" horiz-adv-x="1935" d="M31 1071v184q111 -2 184 37q84 45 90 135h205v-858h-256v502h-223zM356 -55l842 1538h203l-842 -1538h-203zM1139 510q0 170 100 268.5t293 98.5q166 0 264 -70q109 -74 109 -213q0 -100 -74 -172q-53 -51 -178 -115q-72 -37 -88 -47q-53 -31 -74 -65h397v-195h-747 q0 184 145 299q31 25 242 150q121 72 121 126q0 106 -115 107q-135 0 -139 -172h-256z" />
<glyph unicode="&#xbe;" horiz-adv-x="1935" d="M31 842v47h256q0 -70 40 -107t109 -37q51 0 94 24t43 60q0 100 -151 101h-29q-21 -2 -31 -2v168h31q20 -2 29 -2q135 0 135 80q0 35 -36 56t-81 21q-57 0 -93 -31.5t-34 -82.5h-256q4 154 109 233q98 76 272 76q162 0 258 -55q117 -66 117 -199q0 -143 -141 -164v-4 q158 -20 157 -195q0 -139 -120 -213q-104 -66 -271 -65q-182 0 -288 67q-119 78 -119 224zM518 -55l842 1538h203l-842 -1538h-203zM1108 182v203l416 473h250v-491h131v-185h-131v-182h-258v182h-408zM1300 367h218v251z" />
<glyph unicode="&#xbf;" horiz-adv-x="1175" d="M63 45q0 135 68 221q47 59 184 148q82 53 108 93t28 130h323v-102q0 -168 -166 -285q-96 -68 -112 -84q-51 -51 -52 -119q0 -57 38 -91t96 -34q176 0 176 176v39h358q-2 -240 -147.5 -375t-389.5 -135q-209 0 -352 103q-160 115 -160 315zM422 739v381h381v-381h-381z " />
<glyph unicode="&#xc0;" horiz-adv-x="1441" d="M-18 0l546 1462h387l547 -1462h-397l-90 262h-510l-92 -262h-391zM346 1858h369l199 -305h-246zM553 545h332l-162 512h-4z" />
<glyph unicode="&#xc1;" horiz-adv-x="1441" d="M-18 0l546 1462h387l547 -1462h-397l-90 262h-510l-92 -262h-391zM510 1553l199 305h368l-321 -305h-246zM553 545h332l-162 512h-4z" />
<glyph unicode="&#xc2;" horiz-adv-x="1441" d="M-18 0l546 1462h387l547 -1462h-397l-90 262h-510l-92 -262h-391zM336 1553l229 305h312l229 -305h-262l-123 163l-123 -163h-262zM553 545h332l-162 512h-4z" />
<glyph unicode="&#xc3;" horiz-adv-x="1441" d="M-18 0l546 1462h387l547 -1462h-397l-90 262h-510l-92 -262h-391zM334 1559q14 111 76 188q70 90 172 90q61 0 163.5 -42t133.5 -42q33 0 57.5 25.5t28.5 58.5h145q-35 -260 -243 -260q-61 0 -160 37t-137 37q-74 0 -91 -92h-145zM553 545h332l-162 512h-4z" />
<glyph unicode="&#xc4;" horiz-adv-x="1441" d="M-18 0l546 1462h387l547 -1462h-397l-90 262h-510l-92 -262h-391zM350 1581v256h308v-256h-308zM553 545h332l-162 512h-4zM787 1581v256h307v-256h-307z" />
<glyph unicode="&#xc5;" horiz-adv-x="1441" d="M-18 0l546 1462h387l547 -1462h-397l-90 262h-510l-92 -262h-391zM502 1728q0 90 64.5 154.5t154.5 64.5t154.5 -63.5t64.5 -155.5q0 -90 -64.5 -154.5t-154.5 -64.5t-154.5 65.5t-64.5 153.5zM553 545h332l-162 512h-4zM615 1728q0 -43 30.5 -74.5t75.5 -31.5t76 31.5 t31 74.5q0 45 -31 76t-76 31t-75.5 -31t-30.5 -76z" />
<glyph unicode="&#xc6;" horiz-adv-x="2086" d="M-29 0l684 1462h1327v-305h-671v-256h626v-295h-626v-278h690v-328h-1059v262h-446l-119 -262h-406zM610 545h332v612h-65z" />
<glyph unicode="&#xc7;" horiz-adv-x="1554" d="M86 731q0 326 201.5 544t527.5 218q254 0 449 -143q211 -160 219 -410h-381q-14 109 -93 167t-202 58q-172 0 -262 -135q-78 -117 -78 -299t78 -299q90 -135 262 -135q272 0 295 270h381q-14 -272 -191.5 -431t-451.5 -165l-64 -94l4 -4q33 10 82 10q70 0 117 -37 q57 -43 57 -127q0 -199 -262 -198q-100 0 -242 63l39 92q92 -31 168 -38q45 -4 75 15t30 56q0 78 -88 78q-35 0 -82 -14l-45 39l100 161q-291 31 -467 244t-176 514z" />
<glyph unicode="&#xc8;" horiz-adv-x="1402" d="M131 0v1462h1165v-305h-784v-256h717v-295h-717v-278h805v-328h-1186zM327 1858h369l199 -305h-246z" />
<glyph unicode="&#xc9;" horiz-adv-x="1402" d="M131 0v1462h1165v-305h-784v-256h717v-295h-717v-278h805v-328h-1186zM491 1553l199 305h368l-321 -305h-246z" />
<glyph unicode="&#xca;" horiz-adv-x="1402" d="M131 0v1462h1165v-305h-784v-256h717v-295h-717v-278h805v-328h-1186zM317 1553l229 305h312l229 -305h-262l-123 163l-123 -163h-262z" />
<glyph unicode="&#xcb;" horiz-adv-x="1402" d="M131 0v1462h1165v-305h-784v-256h717v-295h-717v-278h805v-328h-1186zM331 1581v256h308v-256h-308zM768 1581v256h307v-256h-307z" />
<glyph unicode="&#xcc;" horiz-adv-x="645" d="M-52 1858h369l199 -305h-246zM131 0v1462h381v-1462h-381z" />
<glyph unicode="&#xcd;" horiz-adv-x="645" d="M112 1553l199 305h368l-321 -305h-246zM131 0v1462h381v-1462h-381z" />
<glyph unicode="&#xce;" horiz-adv-x="645" d="M-62 1553l229 305h312l229 -305h-262l-123 163l-123 -163h-262zM131 0v1462h381v-1462h-381z" />
<glyph unicode="&#xcf;" horiz-adv-x="645" d="M-48 1581v256h308v-256h-308zM131 0v1462h381v-1462h-381zM389 1581v256h307v-256h-307z" />
<glyph unicode="&#xd0;" horiz-adv-x="1554" d="M-16 606v295h147v561h629q336 0 526.5 -192.5t190.5 -532.5q0 -356 -189.5 -546.5t-527.5 -190.5h-629v606h-147zM512 328h180q217 0 310.5 96t93.5 315q0 395 -404 396h-180v-234h324v-295h-324v-278z" />
<glyph unicode="&#xd1;" horiz-adv-x="1517" d="M127 0v1462h391l508 -901h4v901h359v-1462h-392l-508 911h-4v-911h-358zM373 1559q14 111 76 188q70 90 172 90q61 0 163.5 -42t133.5 -42q33 0 57.5 25.5t28.5 58.5h145q-35 -260 -243 -260q-61 0 -160 37t-137 37q-74 0 -91 -92h-145z" />
<glyph unicode="&#xd2;" horiz-adv-x="1593" d="M76 731q0 330 188 541q197 221 533 221t532 -221q188 -211 189 -541q0 -330 -189 -541q-197 -221 -532 -221q-336 0 -533 221q-188 211 -188 541zM422 1858h369l199 -305h-246zM457 731q0 -182 78 -299q90 -135 262 -135t262 135q78 117 78 299t-78 299q-90 135 -262 135 t-262 -135q-78 -117 -78 -299z" />
<glyph unicode="&#xd3;" horiz-adv-x="1593" d="M76 731q0 330 188 541q197 221 533 221t532 -221q188 -211 189 -541q0 -330 -189 -541q-197 -221 -532 -221q-336 0 -533 221q-188 211 -188 541zM457 731q0 -182 78 -299q90 -135 262 -135t262 135q78 117 78 299t-78 299q-90 135 -262 135t-262 -135q-78 -117 -78 -299 zM586 1553l199 305h368l-321 -305h-246z" />
<glyph unicode="&#xd4;" horiz-adv-x="1593" d="M76 731q0 330 188 541q197 221 533 221t532 -221q188 -211 189 -541q0 -330 -189 -541q-197 -221 -532 -221q-336 0 -533 221q-188 211 -188 541zM412 1553l229 305h312l229 -305h-262l-123 163l-123 -163h-262zM457 731q0 -182 78 -299q90 -135 262 -135t262 135 q78 117 78 299t-78 299q-90 135 -262 135t-262 -135q-78 -117 -78 -299z" />
<glyph unicode="&#xd5;" horiz-adv-x="1593" d="M76 731q0 330 188 541q197 221 533 221t532 -221q188 -211 189 -541q0 -330 -189 -541q-197 -221 -532 -221q-336 0 -533 221q-188 211 -188 541zM410 1559q14 111 76 188q70 90 172 90q61 0 163.5 -42t133.5 -42q33 0 57.5 25.5t28.5 58.5h145q-35 -260 -243 -260 q-61 0 -160 37t-137 37q-74 0 -91 -92h-145zM457 731q0 -182 78 -299q90 -135 262 -135t262 135q78 117 78 299t-78 299q-90 135 -262 135t-262 -135q-78 -117 -78 -299z" />
<glyph unicode="&#xd6;" horiz-adv-x="1593" d="M76 731q0 330 188 541q197 221 533 221t532 -221q188 -211 189 -541q0 -330 -189 -541q-197 -221 -532 -221q-336 0 -533 221q-188 211 -188 541zM426 1581v256h308v-256h-308zM457 731q0 -182 78 -299q90 -135 262 -135t262 135q78 117 78 299t-78 299q-90 135 -262 135 t-262 -135q-78 -117 -78 -299zM863 1581v256h307v-256h-307z" />
<glyph unicode="&#xd7;" horiz-adv-x="1228" d="M111 223l295 295l-295 295l208 209l295 -295l295 295l209 -209l-295 -295l295 -295l-209 -209l-295 295l-295 -295z" />
<glyph unicode="&#xd8;" horiz-adv-x="1593" d="M45 20l188 207q-158 203 -157 504q0 330 188 541q197 221 533 221q268 0 454 -147l168 184l119 -103l-178 -194q158 -201 158 -502q0 -330 -189 -541q-197 -221 -532 -221q-270 0 -453 148l-182 -199zM457 731q0 -119 37 -217l520 569q-82 82 -217 82q-172 0 -262 -135 q-78 -117 -78 -299zM582 379q86 -82 215 -82q172 0 262 135q78 117 78 299q0 121 -37 215z" />
<glyph unicode="&#xd9;" horiz-adv-x="1517" d="M121 604v858h381v-880q0 -285 256 -285t256 285v880h381v-858q0 -322 -152 -477q-158 -158 -485 -158q-328 0 -482.5 157t-154.5 478zM385 1858h369l199 -305h-246z" />
<glyph unicode="&#xda;" horiz-adv-x="1517" d="M121 604v858h381v-880q0 -285 256 -285t256 285v880h381v-858q0 -322 -152 -477q-158 -158 -485 -158q-328 0 -482.5 157t-154.5 478zM549 1553l199 305h368l-321 -305h-246z" />
<glyph unicode="&#xdb;" horiz-adv-x="1517" d="M121 604v858h381v-880q0 -285 256 -285t256 285v880h381v-858q0 -322 -152 -477q-158 -158 -485 -158q-328 0 -482.5 157t-154.5 478zM375 1553l229 305h312l229 -305h-262l-123 163l-123 -163h-262z" />
<glyph unicode="&#xdc;" horiz-adv-x="1517" d="M121 604v858h381v-880q0 -285 256 -285t256 285v880h381v-858q0 -322 -152 -477q-158 -158 -485 -158q-328 0 -482.5 157t-154.5 478zM389 1581v256h308v-256h-308zM826 1581v256h307v-256h-307z" />
<glyph unicode="&#xdd;" horiz-adv-x="1366" d="M-39 1462h432l291 -594l291 594h432l-533 -917v-545h-380v545zM473 1553l199 305h368l-321 -305h-246z" />
<glyph unicode="&#xde;" horiz-adv-x="1402" d="M131 0v1462h381v-188h313q227 0 367 -107q162 -123 162 -364q0 -504 -529 -504h-313v-299h-381zM512 594h256q205 0 205 182q0 193 -205 193h-256v-375z" />
<glyph unicode="&#xdf;" d="M117 0v1028q0 203 123 326q135 139 391 139q203 0 342 -94q158 -109 157 -305q0 -92 -48 -171t-130 -110v-4q121 -25 193 -131q68 -98 67 -227q0 -209 -131 -335t-342 -126q-29 0 -172 10v264q57 -8 88 -8q98 0 153.5 62.5t55.5 160.5q0 238 -293 215v207q96 -8 158 27 q76 41 76 137q0 76 -45 119t-117 43q-115 0 -151 -74q-27 -51 -27 -188v-965h-348z" />
<glyph unicode="&#xe0;" horiz-adv-x="1214" d="M59 291q0 158 107 237q80 61 244 90q135 20 268 41q92 18 92 99q0 55 -57 86q-47 25 -111 24q-149 0 -174 -133h-326q16 358 504 359q225 0 342 -66q154 -86 154 -291v-465q0 -188 41 -272h-350q-12 33 -21 100q-125 -131 -350 -131q-160 0 -258 78q-104 86 -105 244z M233 1483h369l199 -305h-246zM408 305q0 -121 145 -121q123 0 171 74t42 240q-33 -20 -139.5 -41t-147.5 -41q-71 -37 -71 -111z" />
<glyph unicode="&#xe1;" horiz-adv-x="1214" d="M59 291q0 158 107 237q80 61 244 90q135 20 268 41q92 18 92 99q0 55 -57 86q-47 25 -111 24q-149 0 -174 -133h-326q16 358 504 359q225 0 342 -66q154 -86 154 -291v-465q0 -188 41 -272h-350q-12 33 -21 100q-125 -131 -350 -131q-160 0 -258 78q-104 86 -105 244z M397 1178l199 305h368l-321 -305h-246zM408 305q0 -121 145 -121q123 0 171 74t42 240q-33 -20 -139.5 -41t-147.5 -41q-71 -37 -71 -111z" />
<glyph unicode="&#xe2;" horiz-adv-x="1214" d="M59 291q0 158 107 237q80 61 244 90q135 20 268 41q92 18 92 99q0 55 -57 86q-47 25 -111 24q-149 0 -174 -133h-326q16 358 504 359q225 0 342 -66q154 -86 154 -291v-465q0 -188 41 -272h-350q-12 33 -21 100q-125 -131 -350 -131q-160 0 -258 78q-104 86 -105 244z M223 1178l229 305h312l229 -305h-262l-123 163l-123 -163h-262zM408 305q0 -121 145 -121q123 0 171 74t42 240q-33 -20 -139.5 -41t-147.5 -41q-71 -37 -71 -111z" />
<glyph unicode="&#xe3;" horiz-adv-x="1214" d="M59 291q0 158 107 237q80 61 244 90q135 20 268 41q92 18 92 99q0 55 -57 86q-47 25 -111 24q-149 0 -174 -133h-326q16 358 504 359q225 0 342 -66q154 -86 154 -291v-465q0 -188 41 -272h-350q-12 33 -21 100q-125 -131 -350 -131q-160 0 -258 78q-104 86 -105 244z M221 1184q14 111 76 188q70 90 172 90q61 0 163.5 -42t133.5 -42q33 0 57.5 25.5t28.5 58.5h145q-35 -260 -243 -260q-61 0 -160 37t-137 37q-74 0 -91 -92h-145zM408 305q0 -121 145 -121q123 0 171 74t42 240q-33 -20 -139.5 -41t-147.5 -41q-71 -37 -71 -111z" />
<glyph unicode="&#xe4;" horiz-adv-x="1214" d="M59 291q0 158 107 237q80 61 244 90q135 20 268 41q92 18 92 99q0 55 -57 86q-47 25 -111 24q-149 0 -174 -133h-326q16 358 504 359q225 0 342 -66q154 -86 154 -291v-465q0 -188 41 -272h-350q-12 33 -21 100q-125 -131 -350 -131q-160 0 -258 78q-104 86 -105 244z M237 1206v256h308v-256h-308zM408 305q0 -121 145 -121q123 0 171 74t42 240q-33 -20 -139.5 -41t-147.5 -41q-71 -37 -71 -111zM674 1206v256h307v-256h-307z" />
<glyph unicode="&#xe5;" horiz-adv-x="1214" d="M59 291q0 158 107 237q80 61 244 90q135 20 268 41q92 18 92 99q0 55 -57 86q-47 25 -111 24q-149 0 -174 -133h-326q16 358 504 359q225 0 342 -66q154 -86 154 -291v-465q0 -188 41 -272h-350q-12 33 -21 100q-125 -131 -350 -131q-160 0 -258 78q-104 86 -105 244z M389 1366q0 90 64.5 154.5t154.5 64.5t154.5 -63.5t64.5 -155.5q0 -90 -64.5 -154.5t-154.5 -64.5t-154.5 65.5t-64.5 153.5zM408 305q0 -121 145 -121q123 0 171 74t42 240q-33 -20 -139.5 -41t-147.5 -41q-71 -37 -71 -111zM502 1366q0 -43 30.5 -74.5t75.5 -31.5t76 31.5 t31 74.5q0 45 -31 76t-76 31t-75.5 -31t-30.5 -76z" />
<glyph unicode="&#xe6;" horiz-adv-x="1933" d="M59 291q0 158 107 237q80 59 246 88q133 20 266 43q121 27 121 93q0 117 -197 116q-150 0 -174 -133h-326q16 358 504 359q276 0 387 -133q127 133 332 133q248 0 399 -174q141 -164 142 -414q0 -29 -2 -60h-764q2 -102 53 -165q57 -76 162 -76q148 0 205 117h327 q-43 -162 -187 -257.5t-317 -95.5q-281 0 -409 162q-201 -162 -492 -162q-174 0 -274 78q-109 84 -109 244zM408 303q-1 -119 165 -119q160 0 205 123q14 43 19 191q-35 -29 -144 -47q-127 -20 -166 -37q-80 -35 -79 -111zM1100 641h416q0 94 -52 154q-57 63 -151 63 q-90 0 -146.5 -63.5t-66.5 -153.5z" />
<glyph unicode="&#xe7;" horiz-adv-x="1214" d="M66 514q0 256 151.5 418t405.5 162q209 0 352 -105q154 -115 172 -315h-338q-2 66 -52 109.5t-118 43.5q-225 0 -225 -313q0 -115 49 -190q55 -88 158 -88q171 0 198 182h338q-20 -197 -154.5 -315.5t-332.5 -129.5l-64 -96l4 -4q33 10 82 10q70 0 117 -37 q57 -43 57 -127q0 -199 -262 -198q-100 0 -242 63l39 92q92 -31 168 -38q45 -4 75 15t30 56q0 78 -88 78q-35 0 -82 -14l-45 39l100 163q-219 20 -356 167t-137 372z" />
<glyph unicode="&#xe8;" horiz-adv-x="1251" d="M66 535q0 242 170 401q164 158 403 158q276 0 426 -189q141 -176 129 -459h-780q4 -111 66.5 -176t170.5 -65q150 0 199 117h326q-45 -174 -199 -269q-139 -84 -330 -84q-264 0 -420 150q-162 152 -161 416zM252 1483h369l199 -305h-246zM414 641h432q-4 90 -62.5 153.5 t-144.5 63.5q-90 0 -149.5 -59.5t-75.5 -157.5z" />
<glyph unicode="&#xe9;" horiz-adv-x="1251" d="M66 535q0 242 170 401q164 158 403 158q276 0 426 -189q141 -176 129 -459h-780q4 -111 66.5 -176t170.5 -65q150 0 199 117h326q-45 -174 -199 -269q-139 -84 -330 -84q-264 0 -420 150q-162 152 -161 416zM414 641h432q-4 90 -62.5 153.5t-144.5 63.5 q-90 0 -149.5 -59.5t-75.5 -157.5zM416 1178l199 305h368l-321 -305h-246z" />
<glyph unicode="&#xea;" horiz-adv-x="1251" d="M66 535q0 242 170 401q164 158 403 158q276 0 426 -189q141 -176 129 -459h-780q4 -111 66.5 -176t170.5 -65q150 0 199 117h326q-45 -174 -199 -269q-139 -84 -330 -84q-264 0 -420 150q-162 152 -161 416zM242 1178l229 305h312l229 -305h-262l-123 163l-123 -163h-262 zM414 641h432q-4 90 -62.5 153.5t-144.5 63.5q-90 0 -149.5 -59.5t-75.5 -157.5z" />
<glyph unicode="&#xeb;" horiz-adv-x="1251" d="M66 535q0 242 170 401q164 158 403 158q276 0 426 -189q141 -176 129 -459h-780q4 -111 66.5 -176t170.5 -65q150 0 199 117h326q-45 -174 -199 -269q-139 -84 -330 -84q-264 0 -420 150q-162 152 -161 416zM256 1206v256h308v-256h-308zM414 641h432q-4 90 -62.5 153.5 t-144.5 63.5q-90 0 -149.5 -59.5t-75.5 -157.5zM693 1206v256h307v-256h-307z" />
<glyph unicode="&#xec;" horiz-adv-x="606" d="M-72 1483h369l199 -305h-246zM129 0v1063h348v-1063h-348z" />
<glyph unicode="&#xed;" horiz-adv-x="606" d="M92 1178l199 305h368l-321 -305h-246zM129 0v1063h348v-1063h-348z" />
<glyph unicode="&#xee;" horiz-adv-x="606" d="M-82 1178l229 305h312l229 -305h-262l-123 163l-123 -163h-262zM129 0v1063h348v-1063h-348z" />
<glyph unicode="&#xef;" horiz-adv-x="606" d="M-68 1206v256h308v-256h-308zM129 0v1063h348v-1063h-348zM369 1206v256h307v-256h-307z" />
<glyph unicode="&#xf0;" horiz-adv-x="1251" d="M66 496q0 221 147 373.5t350 152.5q131 0 199 -43l4 4q-55 113 -178 229l-262 -143l-138 123l248 135q-117 78 -209 107l232 159q150 -51 231 -125l254 140l139 -125l-243 -133q152 -129 247 -334q98 -213 99 -438q0 -283 -154.5 -446t-406.5 -163q-246 0 -402.5 149.5 t-156.5 377.5zM414 496q0 -100 45 -172q55 -88 166 -88t168 88q45 72 45 172t-45 170q-57 90 -168 90t-166 -90q-45 -70 -45 -170z" />
<glyph unicode="&#xf1;" d="M117 0v1063h338v-145h4q47 80 141 128t193 48q383 0 383 -412v-682h-349v514q0 158 -16 201q-33 92 -158 92q-92 0 -143 -70q-45 -61 -45 -157v-580h-348zM258 1184q14 111 76 188q70 90 172 90q61 0 163.5 -42t133.5 -42q33 0 57.5 25.5t28.5 58.5h145 q-35 -260 -243 -260q-61 0 -160 37t-137 37q-74 0 -91 -92h-145z" />
<glyph unicode="&#xf2;" horiz-adv-x="1251" d="M66 530q0 242 156.5 403t402.5 161t403.5 -161t157.5 -403t-158 -401.5t-403 -159.5q-246 0 -402.5 159.5t-156.5 401.5zM252 1483h369l199 -305h-246zM414 530q0 -121 45 -198q55 -96 166 -96t168 96q45 80 45 198q0 119 -45 199q-57 98 -168 98t-166 -98 q-45 -78 -45 -199z" />
<glyph unicode="&#xf3;" horiz-adv-x="1251" d="M66 530q0 242 156.5 403t402.5 161t403.5 -161t157.5 -403t-158 -401.5t-403 -159.5q-246 0 -402.5 159.5t-156.5 401.5zM414 530q0 -121 45 -198q55 -96 166 -96t168 96q45 80 45 198q0 119 -45 199q-57 98 -168 98t-166 -98q-45 -78 -45 -199zM416 1178l199 305h368 l-321 -305h-246z" />
<glyph unicode="&#xf4;" horiz-adv-x="1251" d="M66 530q0 242 156.5 403t402.5 161t403.5 -161t157.5 -403t-158 -401.5t-403 -159.5q-246 0 -402.5 159.5t-156.5 401.5zM242 1178l229 305h312l229 -305h-262l-123 163l-123 -163h-262zM414 530q0 -121 45 -198q55 -96 166 -96t168 96q45 80 45 198q0 119 -45 199 q-57 98 -168 98t-166 -98q-45 -78 -45 -199z" />
<glyph unicode="&#xf5;" horiz-adv-x="1251" d="M66 530q0 242 156.5 403t402.5 161t403.5 -161t157.5 -403t-158 -401.5t-403 -159.5q-246 0 -402.5 159.5t-156.5 401.5zM240 1184q14 111 76 188q70 90 172 90q61 0 163.5 -42t133.5 -42q33 0 57.5 25.5t28.5 58.5h145q-35 -260 -243 -260q-61 0 -160 37t-137 37 q-74 0 -91 -92h-145zM414 530q0 -121 45 -198q55 -96 166 -96t168 96q45 80 45 198q0 119 -45 199q-57 98 -168 98t-166 -98q-45 -78 -45 -199z" />
<glyph unicode="&#xf6;" horiz-adv-x="1251" d="M66 530q0 242 156.5 403t402.5 161t403.5 -161t157.5 -403t-158 -401.5t-403 -159.5q-246 0 -402.5 159.5t-156.5 401.5zM256 1206v256h308v-256h-308zM414 530q0 -121 45 -198q55 -96 166 -96t168 96q45 80 45 198q0 119 -45 199q-57 98 -168 98t-166 -98 q-45 -78 -45 -199zM693 1206v256h307v-256h-307z" />
<glyph unicode="&#xf7;" horiz-adv-x="1228" d="M98 371v295h1032v-295h-1032zM412 94q0 84 59 143.5t143 59.5t143.5 -59.5t59.5 -143.5t-59.5 -143.5t-143.5 -59.5t-143 59.5t-59 143.5zM412 942q0 84 59 143.5t143 59.5t143.5 -59.5t59.5 -143.5t-59.5 -143.5t-143.5 -59.5t-143 59.5t-59 143.5z" />
<glyph unicode="&#xf8;" horiz-adv-x="1251" d="M66 530q0 242 156.5 403t402.5 161q188 0 327 -99l105 123l90 -78l-107 -122q145 -156 146 -388q0 -242 -158 -401.5t-403 -159.5q-184 0 -326 97l-119 -136l-86 66l121 141q-150 156 -149 393zM414 530q0 -76 20 -137l326 379q-55 55 -135 55q-111 0 -166 -98 q-45 -78 -45 -199zM494 289q47 -53 131 -53q111 0 168 96q45 80 45 198q-1 71 -19 134z" />
<glyph unicode="&#xf9;" d="M115 424v639h348v-617q0 -190 172 -190q72 0 123 49q68 61 67 189v569h349v-1063h-338v145h-5q-49 -80 -139 -128t-184 -48q-217 0 -311 123q-82 109 -82 332zM270 1483h369l199 -305h-246z" />
<glyph unicode="&#xfa;" d="M115 424v639h348v-617q0 -190 172 -190q72 0 123 49q68 61 67 189v569h349v-1063h-338v145h-5q-49 -80 -139 -128t-184 -48q-217 0 -311 123q-82 109 -82 332zM434 1178l199 305h368l-321 -305h-246z" />
<glyph unicode="&#xfb;" d="M115 424v639h348v-617q0 -190 172 -190q72 0 123 49q68 61 67 189v569h349v-1063h-338v145h-5q-49 -80 -139 -128t-184 -48q-217 0 -311 123q-82 109 -82 332zM260 1178l229 305h312l229 -305h-262l-123 163l-123 -163h-262z" />
<glyph unicode="&#xfc;" d="M115 424v639h348v-617q0 -190 172 -190q72 0 123 49q68 61 67 189v569h349v-1063h-338v145h-5q-49 -80 -139 -128t-184 -48q-217 0 -311 123q-82 109 -82 332zM274 1206v256h308v-256h-308zM711 1206v256h307v-256h-307z" />
<glyph unicode="&#xfd;" horiz-adv-x="1099" d="M-14 1063h368l201 -692h4l201 692h356l-420 -1157q-59 -164 -166 -219q-84 -43 -278 -43h-164v282h121q61 0 100 32t39 87q0 41 -88 279zM340 1178l199 305h368l-321 -305h-246z" />
<glyph unicode="&#xfe;" d="M117 -356v1818h348v-516h4q109 147 303 148q217 0 340 -181q109 -162 109 -405q0 -223 -111 -373q-125 -166 -338 -166q-195 0 -303 146h-4v-471h-348zM453 543q0 -307 211 -307q106 0 163 98q45 84 45 209q0 117 -45 192q-55 92 -161 92q-84 0 -142 -59 q-72 -76 -71 -225z" />
<glyph unicode="&#xff;" horiz-adv-x="1099" d="M-14 1063h368l201 -692h4l201 692h356l-420 -1157q-59 -164 -166 -219q-84 -43 -278 -43h-164v282h121q61 0 100 32t39 87q0 41 -88 279zM180 1206v256h308v-256h-308zM617 1206v256h307v-256h-307z" />
<glyph unicode="&#x152;" horiz-adv-x="2275" d="M76 731q0 311 184 529q197 233 510 233q229 0 328 -127h4v96h1067v-305h-711v-256h649v-295h-649v-278h727v-328h-1083v92q-111 -123 -332 -123q-313 0 -510 234q-184 217 -184 528zM457 731q0 -186 78 -299q92 -135 276 -135q131 0 213 104q74 96 74 232v196 q0 135 -74 232q-82 104 -213 104q-184 0 -276 -135q-78 -113 -78 -299z" />
<glyph unicode="&#x153;" horiz-adv-x="1972" d="M66 516q0 258 152.5 418t408.5 160q260 0 372 -158q57 74 164 117q100 41 201 41q279 0 424 -189q133 -172 127 -459h-778q-2 -106 66.5 -173.5t176.5 -67.5q137 0 193 117h332q-49 -172 -203 -267q-141 -86 -336 -86q-254 0 -381 156q-123 -156 -383 -156 q-244 0 -390 150.5t-146 396.5zM414 537q0 -301 221 -301q106 0 160 100q41 80 41 194q0 297 -197 297q-119 0 -176 -92q-49 -75 -49 -198zM1133 641h434q-25 217 -213 217q-92 0 -153.5 -62.5t-67.5 -154.5z" />
<glyph unicode="&#x178;" horiz-adv-x="1366" d="M-39 1462h432l291 -594l291 594h432l-533 -917v-545h-380v545zM313 1581v256h308v-256h-308zM750 1581v256h307v-256h-307z" />
<glyph unicode="&#x2c6;" horiz-adv-x="606" d="M-82 1178l229 305h312l229 -305h-262l-123 163l-123 -163h-262z" />
<glyph unicode="&#x2dc;" horiz-adv-x="606" d="M-84 1184q14 111 76 188q70 90 172 90q61 0 163.5 -42t133.5 -42q33 0 57.5 25.5t28.5 58.5h145q-35 -260 -243 -260q-61 0 -160 37t-137 37q-74 0 -91 -92h-145z" />
<glyph unicode="&#x2000;" horiz-adv-x="973" />
<glyph unicode="&#x2001;" horiz-adv-x="1947" />
<glyph unicode="&#x2002;" horiz-adv-x="973" />
<glyph unicode="&#x2003;" horiz-adv-x="1947" />
<glyph unicode="&#x2004;" horiz-adv-x="649" />
<glyph unicode="&#x2005;" horiz-adv-x="486" />
<glyph unicode="&#x2006;" horiz-adv-x="324" />
<glyph unicode="&#x2007;" horiz-adv-x="324" />
<glyph unicode="&#x2008;" horiz-adv-x="243" />
<glyph unicode="&#x2009;" horiz-adv-x="389" />
<glyph unicode="&#x200a;" horiz-adv-x="108" />
<glyph unicode="&#x2010;" horiz-adv-x="833" d="M98 410v295h637v-295h-637z" />
<glyph unicode="&#x2011;" horiz-adv-x="833" d="M98 410v295h637v-295h-637z" />
<glyph unicode="&#x2012;" horiz-adv-x="833" d="M98 410v295h637v-295h-637z" />
<glyph unicode="&#x2013;" horiz-adv-x="1024" d="M0 410v295h1024v-295h-1024z" />
<glyph unicode="&#x2014;" horiz-adv-x="2048" d="M0 410v295h2048v-295h-2048z" />
<glyph unicode="&#x2018;" horiz-adv-x="606" d="M141 725v340q0 344 326 397v-164q-68 -12 -110 -67t-38 -125h148v-381h-326z" />
<glyph unicode="&#x2019;" horiz-adv-x="606" d="M141 725v164q68 12 110 67.5t38 124.5h-148v381h326v-340q0 -344 -326 -397z" />
<glyph unicode="&#x201a;" horiz-adv-x="606" d="M141 0v381h326v-340q0 -344 -326 -397v163q68 12 110 67.5t38 125.5h-148z" />
<glyph unicode="&#x201c;" horiz-adv-x="1024" d="M113 725v340q0 344 325 397v-164q-68 -12 -109.5 -67t-37.5 -125h147v-381h-325zM586 725v340q0 344 325 397v-164q-68 -12 -109.5 -67t-37.5 -125h147v-381h-325z" />
<glyph unicode="&#x201d;" horiz-adv-x="1024" d="M113 725v164q68 12 109.5 67.5t37.5 124.5h-147v381h325v-340q0 -344 -325 -397zM586 725v164q68 12 109.5 67.5t37.5 124.5h-147v381h325v-340q0 -344 -325 -397z" />
<glyph unicode="&#x201e;" horiz-adv-x="1024" d="M113 0v381h325v-340q0 -344 -325 -397v163q68 12 109.5 67.5t37.5 125.5h-147zM586 0v381h325v-340q0 -344 -325 -397v163q68 12 109.5 67.5t37.5 125.5h-147z" />
<glyph unicode="&#x2022;" horiz-adv-x="1024" d="M147 731q0 152 106.5 258.5t258.5 106.5t259.5 -106.5t107.5 -258.5t-107.5 -259t-259.5 -107t-258.5 107t-106.5 259z" />
<glyph unicode="&#x2026;" horiz-adv-x="2048" d="M152 0v381h380v-381h-380zM834 0v381h380v-381h-380zM1516 0v381h380v-381h-380z" />
<glyph unicode="&#x202f;" horiz-adv-x="389" />
<glyph unicode="&#x2039;" horiz-adv-x="493" d="M84 397v312l326 262v-281l-177 -137l177 -135v-281z" />
<glyph unicode="&#x203a;" horiz-adv-x="493" d="M84 137v281l176 137l-176 135v281l326 -260v-312z" />
<glyph unicode="&#x205f;" horiz-adv-x="486" />
<glyph unicode="&#x2122;" horiz-adv-x="2048" d="M84 1268v194h707v-194h-226v-650h-256v650h-225zM961 618v844h319l182 -489l183 489h319v-844h-225v553h-4l-183 -553h-180l-182 553h-4v-553h-225z" />
<glyph unicode="&#x25fc;" horiz-adv-x="1064" d="M0 0v1065h1065v-1065h-1065z" />
</font>
</defs>
</svg>
